<svg width="1328" height="558" viewBox="0 0 1328 558" fill="none" xmlns="http://www.w3.org/2000/svg">
<rect width="1328" height="557.364" rx="32" fill="white"/>
<g clip-path="url(#clip0_923_1440)">
<rect width="1200" height="429.364" transform="translate(64 64)" fill="white"/>
<path d="M64 189.295L208.056 189.279L208.069 201.389L64 201.385V189.295Z" fill="black"/>
<path d="M1264 189.265V201.395L1146.05 201.395L1146.03 189.301L1264 189.265Z" fill="black"/>
<path d="M64 160.384L208.061 160.371L208.065 169.308L64 169.305V160.384Z" fill="black"/>
<path d="M1146.04 160.387L1264 160.358V169.314L1146.06 169.317L1146.04 160.387Z" fill="black"/>
<path d="M267.247 96.2961C267.755 96.2662 269.606 96.3113 269.868 96.7736C273.889 103.879 277.316 111.322 280.997 118.614L304.498 164.664C309.655 174.781 315.137 186.092 320.692 195.831C324.348 190.413 333.775 169.358 337.021 162.459L368.126 96.3963C378.989 96.0928 390.658 96.4672 401.601 96.3189C406.806 96.2486 419.909 96.0394 424.507 96.7994C425.512 97.9554 425.312 97.3015 425.223 98.7201C423.901 99.766 419.703 99.7637 417.576 100.286C409.686 102.015 406.7 109.171 406.564 116.683C405.732 149.656 406.74 178.282 406.4 211.718C406.211 230.268 413.683 251.039 437.796 237.438C443.782 234.061 451.654 208.688 454.38 200.616L467.766 160.897L477.207 132.795C480.691 122.401 484.495 116.602 480.767 105.887C476.322 101.684 472.849 101.25 466.891 99.2334C466.436 98.1447 466.545 98.7424 467.02 97.3308C470.273 95.5285 518.116 96.3511 524.508 96.3599C532.973 120.761 542.337 144.923 551.277 169.157C555.891 181.662 570.719 226.87 577.868 235.398C585.129 244.06 587.386 239.551 593.648 243.532C594.713 244.209 594.69 244.497 594.886 245.65C592.538 247.843 585.981 247.154 582.674 247.143C560.894 247.066 539.107 247.248 517.328 247.128C514.868 247.114 514.553 247.296 513.049 245.669L513.111 244.292C514.552 243.14 517.94 243.075 520.004 242.613C544.116 237.214 526.948 205.967 522.269 191.046L481.48 191.05L467.872 191.035C465.416 200.244 460.729 211.394 459.301 220.669C456.01 242.039 474.818 240.617 477.913 244.906L477.51 245.946C474.235 247.868 456.946 247.107 451.891 247.111L409.737 247.153L373.87 247.171C367.428 247.172 354.831 247.591 349.216 246.267L348.717 245.247C350.876 242.393 361.427 242.113 364.753 238.389C367.847 234.925 370.452 227.537 370.9 222.945C372.137 210.274 371.494 196.194 371.573 183.345C371.698 162.857 371.369 142.445 371.573 121.964C371.598 119.408 371.498 115.702 369.621 113.894L368.636 113.936C364.677 117.916 354.066 143.19 350.604 150.365C335.536 181.581 321.708 214.495 306.443 245.548C285.437 206.707 266.299 166.374 245.637 127.322C244.024 124.272 241.569 118.333 238.168 117.374C236.309 119.839 236.857 144.794 236.946 150.071C237.379 175.977 235.252 202.818 240.658 228.256C241.818 233.721 245.74 238.471 250.34 241.401C254.027 243.897 257.717 241.749 260.761 244.554L260.652 245.882L259.613 246.755C252.643 247.503 242.164 247.19 234.765 247.165C225.849 247.135 214.397 247.536 205.725 246.602L204.894 245.353L204.699 245.565L205.05 246.408L204.814 245.418C213.897 237.876 225.019 247.413 228.096 221.829C232.075 188.752 230.179 155.307 230.254 122.064C230.263 118.197 228.845 112.567 227.263 109.121C224.339 101.65 210.369 101.577 207.936 98.1424L208.405 97.2271C213.106 95.5344 258.468 96.3031 267.247 96.2961Z" fill="black"/>
<path d="M492.896 112.052C495.922 114.201 500.971 130.882 502.426 135.02L519.876 184.392L497.301 184.391L470.117 184.403L484.265 138.456C486.58 130.951 489.957 118.845 492.896 112.052Z" fill="#FEFFFE"/>
<path d="M694.486 96.4079C736.597 95.5384 781.457 96.3288 823.767 96.3323C827.482 105.556 835.14 120.492 838.14 130.256C838.492 131.406 837.443 132.572 836.687 133.365C833.254 132.382 830.359 123.733 827.916 120.208C822.097 111.799 814.744 104.656 804.308 102.864C798.947 101.944 783.865 100.328 779.746 103.011C778.275 108.407 778.849 143.543 778.826 151.476C778.879 173.493 778.72 195.285 778.984 217.321C779.113 228.021 782.875 238.94 794.605 241.76C796.937 242.321 799.146 242.171 801.297 243.318C801.912 245.098 801.9 244.215 801.215 246.058C796.152 247.914 769.099 247.149 762.144 247.123C750.748 247.171 734.084 247.848 722.635 246.44C721.486 246.298 721.609 245.855 720.982 244.626C722.98 238.811 741.297 245.983 742.275 225.963C743.131 208.397 742.773 190.234 742.779 172.644L742.767 129.84C742.767 125.531 743.441 105.459 741.578 103.112C737.265 101.438 721.422 102.514 716.699 103.856C705.068 107.164 692.476 121.177 687.426 131.984C681.215 145.274 670.51 164.841 668.412 179.115C667.609 188.082 667.967 196.905 668.019 205.986C668.289 217.713 665.658 230.185 675.086 239.24C679.844 243.808 689.541 240.951 690.76 245.835C690.156 246.587 689.846 247.137 688.703 247.135C664.135 247.096 639.514 247.292 614.935 247.044C613.043 247.025 610.653 246.938 609.11 245.906C610.422 242.604 619.862 242.362 623.299 239.987C627.821 236.862 630.955 230.329 632.035 225.246C633.202 216.488 634.912 194.812 631.914 186.793C622.992 162.925 606.23 139.134 594.138 116.606C586.826 102.983 580.485 103.147 567.836 100.174C566.468 98.6193 566.889 98.9087 566.492 96.4988C574.673 96.2163 640.52 95.7628 642.905 97.1597L643.088 98.2003C640.467 100.54 635.99 99.7566 632.819 101.944C630.86 103.296 629.599 105.131 629.312 107.515C628.644 113.051 656.23 160.243 661.17 166.104L662.125 166.146C664.931 163.525 690.742 104.567 694.486 96.4079Z" fill="black"/>
<path fill-rule="evenodd" clip-rule="evenodd" d="M898.84 96.1822C884.161 95.9968 867.257 95.7834 856.041 96.5978C856.102 96.7992 856.16 97.0236 856.221 97.2595C856.537 98.478 856.932 100.001 858.174 100.214C867.871 101.884 875.523 105.752 872.102 117.33C865.896 138.327 858.725 159.192 851.563 180.029C847.323 192.366 843.086 204.694 839.055 217.033L839.012 217.162C836.351 225.316 832.83 236.106 824.723 239.863C822.878 240.752 820.684 241.174 818.625 241.57C815.563 242.158 812.802 242.689 811.943 244.613C812.048 244.925 812.104 245.141 812.144 245.298C812.19 245.477 812.216 245.579 812.273 245.658C812.349 245.763 812.48 245.828 812.784 245.979C812.847 246.01 812.918 246.045 812.998 246.086C816.15 247.671 863.371 247.904 866.869 246.086C867.35 245.834 867.561 245.601 867.861 245.27L867.921 245.205C867.954 245.168 867.988 245.131 868.023 245.093C867.869 243.441 865.775 242.788 863.039 241.935C854.459 239.262 839.564 234.62 858.338 191.024L912.912 191.034C913.197 191.82 913.535 192.719 913.888 193.66L913.89 193.665C914.706 195.839 915.609 198.242 916.152 200.023C916.568 201.139 917.025 202.317 917.501 203.543C922.523 216.488 929.63 234.81 912.32 242.146C911.152 242.641 909.645 242.704 908.136 242.768C906.435 242.84 904.731 242.912 903.508 243.602C903.39 243.98 903.297 244.235 903.229 244.421C903.141 244.665 903.095 244.789 903.093 244.914C903.091 245.045 903.135 245.177 903.227 245.446C903.285 245.619 903.364 245.849 903.461 246.173C904.615 246.856 906.309 247.279 907.639 247.21C912.743 246.943 918.851 247.043 924.856 247.141C930.541 247.234 936.135 247.325 940.697 247.103C942.564 247.012 946.932 247.079 952.23 247.161C964.481 247.35 981.699 247.617 984.432 246.176C985.034 243.737 982.46 242.966 978.985 241.924C974.857 240.688 969.458 239.07 966.602 233.825C961.354 224.184 957.817 214.094 954.249 203.918C952.275 198.287 950.291 192.631 948.004 187.009C942.819 172.655 937.43 158.325 932.046 144.008C926.065 128.103 920.09 112.213 914.406 96.3235C909.854 96.3213 904.513 96.2538 898.84 96.1822ZM907.732 176.017C900.952 156.423 885.73 112.432 883.457 111.42C881.208 116.49 877.306 129.478 875.1 136.818C874.829 137.722 874.583 138.539 874.369 139.246C872.56 145.221 870.61 151.307 868.652 157.415C865.755 166.459 862.841 175.551 860.348 184.397L887.535 184.391L910.645 184.387C910.145 182.992 909.114 180.011 907.732 176.017Z" fill="black"/>
<path d="M1031.49 96.8052C1038.16 95.9333 1053.98 96.3042 1061.03 96.3059L1116.99 96.361C1117.01 103.224 1118.01 140.453 1115.46 143.756L1113.47 143.918C1110.23 141.892 1110.91 121.086 1099.88 110.958C1088.71 95.7018 1049.92 98.2794 1037.73 111.116C1016.61 133.377 1017.96 208.863 1037.97 232.199C1046.31 241.928 1075.01 244.55 1084.74 239.05C1088.76 236.779 1087.32 199.01 1087 193.127C1082.01 171.101 1062.13 183.766 1058.28 175.398C1058.79 173.558 1060.2 171.543 1062.36 171.544C1068.33 171.549 1074.3 171.619 1080.28 171.624L1121.12 171.653L1121.15 247.115L1065.77 247.156C1053.24 247.158 1040.9 247.841 1028.51 245.86C987.596 239.212 979.943 195.884 982.211 161.097C984.467 126.538 994.311 101.563 1031.49 96.8052Z" fill="black"/>
<g clip-path="url(#clip1_923_1440)">
<rect width="1200" height="214" transform="translate(64 279.364)" fill="black"/>
<path d="M212.264 328.62H238.954V427.56H298.114V450H212.264V328.62ZM360.636 403.08H392.086L376.786 358.54H376.446L360.636 403.08ZM363.186 328.62H390.556L435.946 450H408.236L399.056 422.97H353.666L344.146 450H317.286L363.186 328.62ZM566.433 404.1C566.433 420.533 561.843 432.773 552.663 440.82C543.483 448.753 530.789 452.72 514.583 452.72C498.149 452.72 485.399 448.753 476.333 440.82C467.379 432.887 462.903 420.647 462.903 404.1V328.62H489.593V404.1C489.593 407.387 489.876 410.617 490.443 413.79C491.009 416.963 492.199 419.797 494.013 422.29C495.826 424.67 498.319 426.653 501.493 428.24C504.779 429.713 509.143 430.45 514.583 430.45C524.103 430.45 530.676 428.353 534.303 424.16C537.929 419.853 539.743 413.167 539.743 404.1V328.62H566.433V404.1ZM606.418 328.62H632.938L683.598 410.05H683.938V328.62H708.928V450H682.238L631.748 368.74H631.408V450H606.418V328.62ZM776.114 427.56H799.914C803.768 427.56 807.508 426.937 811.134 425.69C814.761 424.443 817.991 422.403 820.824 419.57C823.658 416.623 825.924 412.827 827.624 408.18C829.324 403.533 830.174 397.867 830.174 391.18C830.174 385.06 829.551 379.563 828.304 374.69C827.171 369.703 825.244 365.453 822.524 361.94C819.804 358.427 816.178 355.763 811.644 353.95C807.224 352.023 801.728 351.06 795.154 351.06H776.114V427.56ZM749.424 328.62H801.784C809.604 328.62 816.858 329.867 823.544 332.36C830.344 334.853 836.181 338.593 841.054 343.58C846.041 348.567 849.894 354.8 852.614 362.28C855.448 369.76 856.864 378.543 856.864 388.63C856.864 397.47 855.731 405.63 853.464 413.11C851.198 420.59 847.741 427.05 843.094 432.49C838.561 437.93 832.838 442.237 825.924 445.41C819.124 448.47 811.078 450 801.784 450H749.424V328.62ZM919.12 383.53H948.36C954.48 383.53 959.07 382.17 962.13 379.45C965.19 376.73 966.72 372.31 966.72 366.19C966.72 360.297 965.19 356.047 962.13 353.44C959.07 350.72 954.48 349.36 948.36 349.36H919.12V383.53ZM892.43 328.62H957.88C963.32 328.62 968.194 329.527 972.5 331.34C976.92 333.04 980.66 335.42 983.72 338.48C986.894 341.54 989.274 345.11 990.86 349.19C992.56 353.157 993.41 357.463 993.41 362.11C993.41 369.25 991.88 375.427 988.82 380.64C985.874 385.853 981 389.82 974.2 392.54V392.88C977.487 393.787 980.207 395.203 982.36 397.13C984.514 398.943 986.27 401.153 987.63 403.76C988.99 406.253 989.954 409.03 990.52 412.09C991.2 415.15 991.654 418.21 991.88 421.27C991.994 423.197 992.107 425.463 992.22 428.07C992.334 430.677 992.504 433.34 992.73 436.06C993.07 438.78 993.524 441.387 994.09 443.88C994.77 446.26 995.734 448.3 996.98 450H970.29C968.817 446.147 967.91 441.557 967.57 436.23C967.23 430.903 966.72 425.803 966.04 420.93C965.134 414.583 963.207 409.937 960.26 406.99C957.314 404.043 952.497 402.57 945.81 402.57H919.12V450H892.43V328.62ZM1057.26 402.74L1012.72 328.62H1042.64L1071.03 376.56L1099.25 328.62H1129L1083.95 403.42V450H1057.26V402.74Z" fill="white"/>
</g>
</g>
<defs>
<clipPath id="clip0_923_1440">
<rect width="1200" height="429.364" fill="white" transform="translate(64 64)"/>
</clipPath>
<clipPath id="clip1_923_1440">
<rect width="1200" height="214" fill="white" transform="translate(64 279.364)"/>
</clipPath>
</defs>
</svg>
