<svg width="1200" height="430" viewBox="0 0 1200 430" fill="none" xmlns="http://www.w3.org/2000/svg">
<g clip-path="url(#clip0_909_1097)">
<rect width="1200" height="429.364" fill="white"/>
<path d="M0 125.295L144.056 125.279L144.069 137.389L0 137.384V125.295Z" fill="black"/>
<path d="M1200 125.265V137.395L1082.05 137.394L1082.03 125.301L1200 125.265Z" fill="black"/>
<path d="M0 96.3835L144.061 96.3712L144.065 105.308L0 105.305V96.3835Z" fill="black"/>
<path d="M1082.04 96.387L1200 96.3577V105.314L1082.06 105.317L1082.04 96.387Z" fill="black"/>
<path d="M203.247 32.296C203.755 32.2661 205.606 32.3112 205.868 32.7735C209.889 39.8792 213.316 47.3224 216.997 54.6138L240.498 100.664C245.655 110.781 251.137 122.092 256.692 131.831C260.348 126.413 269.775 105.358 273.021 98.4589L304.126 32.3962C314.989 32.0927 326.658 32.4671 337.601 32.3189C342.806 32.2485 355.909 32.0394 360.507 32.7993C361.512 33.9554 361.312 33.3015 361.223 34.72C359.901 35.7659 355.703 35.7636 353.576 36.2857C345.686 38.0154 342.7 45.1708 342.564 52.6825C341.732 85.6562 342.74 114.282 342.4 147.717C342.211 166.268 349.683 187.039 373.796 173.438C379.782 170.061 387.654 144.688 390.38 136.616L403.766 96.8974L413.207 68.7946C416.691 58.4007 420.495 52.6017 416.767 41.8866C412.322 37.6843 408.849 37.2501 402.891 35.2333C402.436 34.1446 402.545 34.7423 403.02 33.3308C406.273 31.5284 454.116 32.3511 460.508 32.3599C468.973 56.7612 478.337 80.923 487.277 105.157C491.891 117.662 506.719 162.87 513.868 171.398C521.129 180.059 523.386 175.551 529.648 179.532C530.713 180.209 530.69 180.497 530.886 181.65C528.538 183.843 521.981 183.154 518.674 183.143C496.894 183.066 475.107 183.248 453.328 183.127C450.868 183.114 450.553 183.296 449.049 181.669L449.111 180.292C450.552 179.14 453.94 179.075 456.004 178.613C480.116 173.214 462.948 141.967 458.269 127.046L417.48 127.05L403.872 127.034C401.416 136.244 396.729 147.393 395.301 156.669C392.01 178.039 410.818 176.616 413.913 180.906L413.51 181.946C410.235 183.867 392.946 183.107 387.891 183.111L345.737 183.153L309.87 183.171C303.428 183.172 290.831 183.591 285.216 182.267L284.717 181.247C286.876 178.393 297.427 178.113 300.753 174.389C303.847 170.925 306.452 163.537 306.9 158.945C308.137 146.274 307.494 132.194 307.573 119.345C307.698 98.8568 307.369 78.4444 307.573 57.9636C307.598 55.4077 307.498 51.7023 305.621 49.894L304.636 49.9362C300.677 53.9159 290.066 79.1903 286.604 86.3646C271.536 117.581 257.708 150.495 242.443 181.548C221.437 142.707 202.299 102.374 181.637 63.322C180.024 60.2722 177.569 54.3325 174.168 53.3739C172.309 55.839 172.857 80.7941 172.946 86.071C173.379 111.976 171.252 138.818 176.658 164.256C177.818 169.721 181.74 174.471 186.34 177.4C190.027 179.897 193.717 177.749 196.761 180.554L196.652 181.882L195.613 182.755C188.643 183.502 178.164 183.19 170.765 183.165C161.849 183.135 150.397 183.536 141.725 182.602L140.894 181.353L140.699 181.565L141.05 182.408L140.814 181.418C149.897 173.875 161.019 183.413 164.096 157.828C168.075 124.752 166.179 91.3069 166.254 58.0644C166.263 54.1966 164.845 48.5669 163.263 45.121C160.339 37.6503 146.369 37.5765 143.936 34.1423L144.405 33.2271C149.106 31.5343 194.468 32.303 203.247 32.296Z" fill="black"/>
<path d="M428.896 48.0519C431.922 50.2005 436.971 66.8822 438.426 71.02L455.876 120.392L433.301 120.391L406.117 120.403L420.265 74.456C422.58 66.9507 425.957 54.8447 428.896 48.0519Z" fill="#FEFFFE"/>
<path d="M630.486 32.4079C672.598 31.5384 717.457 32.3288 759.768 32.3323C763.482 41.5556 771.141 56.4923 774.141 66.2558C774.492 67.406 773.443 68.572 772.688 69.3653C769.254 68.3815 766.359 59.7331 763.916 56.2075C758.098 47.7988 750.744 40.6556 740.309 38.8644C734.947 37.9445 719.865 36.3284 715.746 39.0114C714.275 44.4068 714.85 79.5431 714.826 87.4755C714.879 109.493 714.721 131.285 714.984 153.321C715.113 164.021 718.875 174.94 730.606 177.76C732.938 178.321 735.146 178.171 737.297 179.318C737.912 181.098 737.9 180.215 737.215 182.058C732.152 183.914 705.1 183.149 698.145 183.123C686.748 183.171 670.084 183.848 658.635 182.44C657.486 182.298 657.609 181.855 656.982 180.626C658.981 174.811 677.297 181.983 678.275 161.963C679.131 144.397 678.773 126.234 678.779 108.644L678.768 65.8403C678.768 61.5314 679.441 41.4589 677.578 39.1122C673.266 37.4382 657.422 38.514 652.699 39.8564C641.068 43.164 628.477 57.1773 623.426 67.9843C617.215 81.274 606.51 100.841 604.412 115.115C603.609 124.082 603.967 132.905 604.02 141.986C604.289 153.713 601.658 166.185 611.086 175.24C615.844 179.808 625.541 176.951 626.76 181.835C626.156 182.587 625.846 183.137 624.703 183.135C600.135 183.096 575.514 183.292 550.935 183.044C549.043 183.025 546.653 182.938 545.111 181.906C546.422 178.604 555.862 178.362 559.299 175.987C563.821 172.862 566.955 166.329 568.035 161.246C569.203 152.488 570.912 130.812 567.915 122.793C558.993 98.9253 542.23 75.1345 530.138 52.6058C522.826 38.9833 516.485 39.1468 503.836 36.1738C502.468 34.6193 502.89 34.9087 502.492 32.4988C510.673 32.2163 576.52 31.7628 578.905 33.1597L579.088 34.2003C576.468 36.54 571.99 35.7566 568.819 37.9445C566.861 39.2962 565.6 41.1308 565.312 43.515C564.644 49.0515 592.231 96.2429 597.17 102.104L598.125 102.146C600.932 99.5247 626.742 40.5665 630.486 32.4079Z" fill="black"/>
<path fill-rule="evenodd" clip-rule="evenodd" d="M834.84 32.1822C820.161 31.9968 803.257 31.7834 792.041 32.5978C792.102 32.7992 792.16 33.0236 792.221 33.2595C792.537 34.478 792.932 36.0006 794.174 36.2142C803.871 37.8841 811.523 41.7519 808.102 53.33C801.896 74.3267 794.725 95.1918 787.563 116.029C783.323 128.366 779.086 140.694 775.055 153.033L775.012 153.162C772.351 161.316 768.83 172.106 760.723 175.863C758.878 176.752 756.684 177.174 754.625 177.57C751.563 178.158 748.802 178.689 747.943 180.613C748.048 180.925 748.104 181.141 748.144 181.298C748.19 181.477 748.216 181.579 748.273 181.658C748.349 181.763 748.48 181.828 748.784 181.979C748.847 182.01 748.918 182.045 748.998 182.086C752.15 183.671 799.371 183.904 802.869 182.086C803.35 181.834 803.561 181.601 803.861 181.27L803.921 181.205C803.954 181.168 803.988 181.131 804.023 181.093C803.869 179.441 801.775 178.788 799.039 177.935C790.459 175.262 775.564 170.62 794.338 127.024L848.912 127.034C849.197 127.82 849.535 128.719 849.888 129.66L849.89 129.665C850.706 131.839 851.609 134.242 852.152 136.023C852.568 137.139 853.025 138.317 853.501 139.543C858.523 152.488 865.63 170.81 848.32 178.146C847.152 178.641 845.645 178.704 844.136 178.768C842.435 178.84 840.731 178.912 839.508 179.602C839.39 179.98 839.297 180.235 839.229 180.421C839.141 180.665 839.095 180.789 839.093 180.914C839.091 181.045 839.135 181.177 839.227 181.446C839.285 181.619 839.364 181.849 839.461 182.173C840.615 182.856 842.309 183.279 843.639 183.21C848.743 182.943 854.851 183.043 860.856 183.141C866.541 183.234 872.135 183.325 876.697 183.103C878.564 183.012 882.932 183.079 888.23 183.161C900.481 183.35 917.699 183.617 920.432 182.176C921.034 179.737 918.46 178.966 914.985 177.924C910.857 176.688 905.458 175.07 902.602 169.825C897.354 160.184 893.817 150.094 890.249 139.918C888.275 134.287 886.291 128.631 884.004 123.009C878.819 108.655 873.43 94.3252 868.046 80.0085C862.065 64.1027 856.09 48.2128 850.406 32.3235C845.854 32.3213 840.513 32.2538 834.84 32.1822ZM843.732 112.017C836.952 92.4233 821.73 48.432 819.457 47.4196C817.208 52.4903 813.306 65.4776 811.1 72.8182C810.829 73.7215 810.583 74.5394 810.369 75.2464C808.56 81.2206 806.61 87.307 804.652 93.4151C801.755 102.459 798.841 111.551 796.348 120.397L823.535 120.391L846.645 120.387C846.145 118.992 845.114 116.011 843.732 112.017Z" fill="black"/>
<path d="M967.488 32.8052C974.162 31.9333 989.983 32.3042 997.026 32.3059L1052.99 32.361C1053.01 39.2235 1054.01 76.4528 1051.46 79.7563L1049.47 79.918C1046.23 77.8924 1046.91 57.0858 1035.88 46.9579C1024.71 31.7018 985.922 34.2794 973.734 47.1161C952.606 69.377 953.965 144.863 973.969 168.199C982.313 177.928 1011.01 180.55 1020.74 175.05C1024.76 172.779 1023.32 135.01 1023 129.127C1018.01 107.101 998.133 119.766 994.277 111.398C994.793 109.558 996.199 107.543 998.356 107.544C1004.33 107.549 1010.3 107.619 1016.28 107.624L1057.12 107.653L1057.15 183.115L1001.77 183.156C989.244 183.158 976.904 183.841 964.512 181.86C923.596 175.212 915.943 131.884 918.211 97.0965C920.467 62.538 930.311 37.563 967.488 32.8052Z" fill="black"/>
<g clip-path="url(#clip1_909_1097)">
<rect width="1200" height="214" transform="translate(0 215.364)" fill="black"/>
<path d="M148.264 264.62H174.954V363.56H234.114V386H148.264V264.62ZM296.636 339.08H328.086L312.786 294.54H312.446L296.636 339.08ZM299.186 264.62H326.556L371.946 386H344.236L335.056 358.97H289.666L280.146 386H253.286L299.186 264.62ZM502.433 340.1C502.433 356.533 497.843 368.773 488.663 376.82C479.483 384.753 466.789 388.72 450.583 388.72C434.149 388.72 421.399 384.753 412.333 376.82C403.379 368.887 398.903 356.647 398.903 340.1V264.62H425.593V340.1C425.593 343.387 425.876 346.617 426.443 349.79C427.009 352.963 428.199 355.797 430.013 358.29C431.826 360.67 434.319 362.653 437.493 364.24C440.779 365.713 445.143 366.45 450.583 366.45C460.103 366.45 466.676 364.353 470.303 360.16C473.929 355.853 475.743 349.167 475.743 340.1V264.62H502.433V340.1ZM542.418 264.62H568.938L619.598 346.05H619.938V264.62H644.928V386H618.238L567.748 304.74H567.408V386H542.418V264.62ZM712.114 363.56H735.914C739.768 363.56 743.508 362.937 747.134 361.69C750.761 360.443 753.991 358.403 756.824 355.57C759.658 352.623 761.924 348.827 763.624 344.18C765.324 339.533 766.174 333.867 766.174 327.18C766.174 321.06 765.551 315.563 764.304 310.69C763.171 305.703 761.244 301.453 758.524 297.94C755.804 294.427 752.178 291.763 747.644 289.95C743.224 288.023 737.728 287.06 731.154 287.06H712.114V363.56ZM685.424 264.62H737.784C745.604 264.62 752.858 265.867 759.544 268.36C766.344 270.853 772.181 274.593 777.054 279.58C782.041 284.567 785.894 290.8 788.614 298.28C791.448 305.76 792.864 314.543 792.864 324.63C792.864 333.47 791.731 341.63 789.464 349.11C787.198 356.59 783.741 363.05 779.094 368.49C774.561 373.93 768.838 378.237 761.924 381.41C755.124 384.47 747.078 386 737.784 386H685.424V264.62ZM855.12 319.53H884.36C890.48 319.53 895.07 318.17 898.13 315.45C901.19 312.73 902.72 308.31 902.72 302.19C902.72 296.297 901.19 292.047 898.13 289.44C895.07 286.72 890.48 285.36 884.36 285.36H855.12V319.53ZM828.43 264.62H893.88C899.32 264.62 904.194 265.527 908.5 267.34C912.92 269.04 916.66 271.42 919.72 274.48C922.894 277.54 925.274 281.11 926.86 285.19C928.56 289.157 929.41 293.463 929.41 298.11C929.41 305.25 927.88 311.427 924.82 316.64C921.874 321.853 917 325.82 910.2 328.54V328.88C913.487 329.787 916.207 331.203 918.36 333.13C920.514 334.943 922.27 337.153 923.63 339.76C924.99 342.253 925.954 345.03 926.52 348.09C927.2 351.15 927.654 354.21 927.88 357.27C927.994 359.197 928.107 361.463 928.22 364.07C928.334 366.677 928.504 369.34 928.73 372.06C929.07 374.78 929.524 377.387 930.09 379.88C930.77 382.26 931.734 384.3 932.98 386H906.29C904.817 382.147 903.91 377.557 903.57 372.23C903.23 366.903 902.72 361.803 902.04 356.93C901.134 350.583 899.207 345.937 896.26 342.99C893.314 340.043 888.497 338.57 881.81 338.57H855.12V386H828.43V264.62ZM993.257 338.74L948.717 264.62H978.637L1007.03 312.56L1035.25 264.62H1065L1019.95 339.42V386H993.257V338.74Z" fill="white"/>
</g>
</g>
<defs>
<clipPath id="clip0_909_1097">
<rect width="1200" height="429.364" fill="white"/>
</clipPath>
<clipPath id="clip1_909_1097">
<rect width="1200" height="214" fill="white" transform="translate(0 215.364)"/>
</clipPath>
</defs>
</svg>
