<svg width="1328" height="557" viewBox="0 0 1328 557" fill="none" xmlns="http://www.w3.org/2000/svg">
<rect width="1328" height="557" rx="32" fill="black"/>
<path d="M218.381 96.168C218.985 96.1381 221.186 96.1832 221.497 96.6451C226.279 103.745 230.354 111.182 234.732 118.467L262.679 164.478C268.811 174.587 275.33 185.887 281.936 195.618C286.283 190.205 297.494 169.168 301.354 162.275L338.344 96.2681C351.261 95.9649 365.138 96.3389 378.151 96.1908C384.34 96.1206 399.923 95.9116 405.39 96.6709C406.585 97.826 406.348 97.1726 406.242 98.59C404.669 99.635 399.678 99.6326 397.148 100.154C387.766 101.882 384.215 109.032 384.052 116.537C383.064 149.483 384.262 178.084 383.857 211.492C383.633 230.027 392.519 250.78 421.193 237.19C428.311 233.816 437.673 208.464 440.915 200.399L456.833 160.715L468.059 132.636C472.202 122.251 476.726 116.456 472.293 105.75C467.007 101.552 462.878 101.118 455.792 99.1028C455.251 98.0151 455.38 98.6122 455.946 97.2019C459.814 95.4011 516.708 96.223 524.308 96.2318C534.375 120.612 545.511 144.754 556.142 168.967C561.629 181.462 579.262 226.631 587.763 235.151C596.398 243.806 599.082 239.302 606.528 243.279C607.795 243.955 607.768 244.243 608 245.396C605.208 247.586 597.41 246.898 593.478 246.887C567.578 246.81 541.67 246.991 515.771 246.871C512.845 246.858 512.471 247.04 510.682 245.414L510.756 244.038C512.469 242.887 516.498 242.823 518.953 242.361C547.626 236.966 527.21 205.745 521.646 190.837L473.141 190.841L456.959 190.826C454.039 200.028 448.464 211.168 446.766 220.435C442.853 241.787 465.218 240.366 468.899 244.651L468.42 245.691C464.525 247.611 443.966 246.851 437.954 246.855L387.826 246.897L345.174 246.915C337.513 246.916 322.534 247.334 315.856 246.011L315.263 244.993C317.83 242.141 330.377 241.861 334.333 238.141C338.012 234.68 341.109 227.298 341.642 222.709C343.113 210.049 342.349 195.981 342.442 183.143C342.591 162.672 342.2 142.277 342.442 121.814C342.472 119.26 342.353 115.558 340.122 113.751L338.95 113.793C334.242 117.77 321.624 143.023 317.506 150.191C299.589 181.381 283.144 214.266 264.991 245.293C240.012 206.485 217.253 166.187 192.683 127.168C190.764 124.12 187.845 118.186 183.801 117.228C181.591 119.691 182.242 144.625 182.347 149.897C182.863 175.781 180.334 202.599 186.761 228.016C188.142 233.477 192.805 238.222 198.276 241.149C202.66 243.643 207.048 241.497 210.667 244.3L210.538 245.627L209.302 246.5C201.014 247.246 188.553 246.933 179.754 246.909C169.151 246.879 155.533 247.279 145.221 246.346L144.232 245.098L144 245.311L144.418 246.152L144.137 245.164C154.938 237.627 168.164 247.157 171.824 221.594C176.555 188.546 174.301 155.129 174.39 121.914C174.401 118.05 172.714 112.425 170.832 108.982C167.355 101.518 150.743 101.444 147.85 98.0127L148.408 97.0983C153.998 95.4069 207.942 96.175 218.381 96.168Z" fill="white"/>
<path d="M485.042 112C488.443 114.138 494.119 130.739 495.754 134.857L515.371 183.989L489.993 183.988L459.435 184L475.339 138.276C477.942 130.807 481.738 118.76 485.042 112Z" fill="black"/>
<path d="M701.606 96.407C749.446 95.5394 800.409 96.3281 848.476 96.3316C852.696 105.535 861.396 120.439 864.804 130.182C865.203 131.329 864.012 132.493 863.153 133.285C859.252 132.303 855.964 123.673 853.188 120.155C846.578 111.765 838.224 104.637 826.369 102.85C820.278 101.932 803.145 100.319 798.465 102.996C796.794 108.38 797.446 143.44 797.42 151.356C797.48 173.326 797.3 195.07 797.6 217.059C797.746 227.735 802.02 238.631 815.346 241.445C817.995 242.005 820.505 241.855 822.948 243C823.647 244.776 823.633 243.894 822.855 245.734C817.103 247.586 786.37 246.822 778.469 246.796C765.522 246.844 746.591 247.519 733.584 246.114C732.279 245.973 732.419 245.531 731.707 244.304C733.976 238.502 754.785 245.658 755.896 225.682C756.868 208.154 756.462 190.03 756.469 172.478L756.456 129.767C756.456 125.468 757.221 105.438 755.104 103.097C750.205 101.426 732.206 102.5 726.841 103.839C713.627 107.14 699.322 121.123 693.585 131.906C686.529 145.167 674.367 164.692 671.984 178.936C671.072 187.883 671.478 196.687 671.538 205.748C671.844 217.45 668.856 229.895 679.566 238.93C684.971 243.488 695.988 240.638 697.372 245.512C696.687 246.261 696.334 246.81 695.036 246.808C667.125 246.769 639.155 246.965 611.231 246.718C609.082 246.698 606.367 246.611 604.615 245.582C606.104 242.287 616.829 242.046 620.733 239.675C625.87 236.557 629.431 230.038 630.658 224.966C631.984 216.228 633.927 194.598 630.521 186.597C620.385 162.781 601.342 139.041 587.605 116.561C579.298 102.968 572.095 103.131 557.725 100.165C556.171 98.6136 556.65 98.9024 556.198 96.4977C565.492 96.2159 640.298 95.7633 643.007 97.1572L643.215 98.1956C640.238 100.53 635.151 99.7484 631.549 101.932C629.324 103.28 627.891 105.111 627.564 107.49C626.805 113.015 658.145 160.104 663.757 165.952L664.842 165.994C668.03 163.379 697.352 104.548 701.606 96.407Z" fill="white"/>
<path fill-rule="evenodd" clip-rule="evenodd" d="M935.423 96.1707C918.771 95.9858 899.595 95.7728 886.871 96.5853C886.94 96.7862 887.006 97.0102 887.075 97.2455C887.434 98.4611 887.881 99.9802 889.29 100.193C900.291 101.859 908.972 105.718 905.091 117.269C898.051 138.217 889.916 159.033 881.791 179.822C876.981 192.13 872.174 204.429 867.601 216.739L867.553 216.869C864.534 225.003 860.539 235.768 851.342 239.517C849.25 240.404 846.76 240.825 844.425 241.219C840.951 241.807 837.819 242.336 836.845 244.256C836.964 244.567 837.027 244.782 837.072 244.939C837.124 245.117 837.154 245.219 837.219 245.298C837.305 245.402 837.453 245.467 837.798 245.618C837.87 245.649 837.951 245.685 838.041 245.725C841.617 247.307 895.186 247.539 899.155 245.725C899.7 245.474 899.94 245.241 900.28 244.911L900.348 244.846C900.385 244.81 900.424 244.772 900.464 244.734C900.289 243.086 897.914 242.435 894.81 241.584C885.076 238.917 868.178 234.286 889.476 190.791L951.388 190.801C951.711 191.586 952.094 192.482 952.495 193.422L952.497 193.426C953.423 195.595 954.447 197.993 955.063 199.769C955.535 200.882 956.053 202.058 956.593 203.281C962.29 216.196 970.353 234.475 950.716 241.794C949.391 242.288 947.682 242.351 945.97 242.415C944.04 242.487 942.107 242.559 940.719 243.247C940.585 243.624 940.479 243.879 940.403 244.064C940.302 244.307 940.251 244.431 940.248 244.556C940.246 244.687 940.296 244.818 940.4 245.086C940.467 245.259 940.555 245.489 940.666 245.812C941.975 246.493 943.896 246.916 945.405 246.846C951.196 246.58 958.125 246.68 964.937 246.778C971.387 246.87 977.733 246.962 982.908 246.74C985.025 246.649 989.982 246.716 995.992 246.798C1009.89 246.987 1029.42 247.252 1032.52 245.815C1033.21 243.382 1030.29 242.612 1026.34 241.573C1021.66 240.339 1015.54 238.725 1012.29 233.493C1006.34 223.874 1002.33 213.808 998.281 203.655C996.042 198.038 993.792 192.394 991.197 186.785C985.315 172.465 979.202 158.169 973.094 143.886C966.309 128.017 959.53 112.164 953.083 96.3117C947.919 96.3094 941.859 96.2421 935.423 96.1707ZM945.511 175.819C937.82 156.271 920.551 112.383 917.973 111.373C915.422 116.432 910.995 129.389 908.492 136.712C908.184 137.613 907.906 138.429 907.663 139.135C905.61 145.095 903.398 151.167 901.178 157.261C897.89 166.284 894.585 175.355 891.756 184.18L922.599 184.173L948.815 184.17C948.249 182.778 947.079 179.804 945.511 175.819Z" fill="white"/>
<path d="M1082.66 96.5789C1090.2 95.7073 1108.08 96.0781 1116.04 96.0798L1179.3 96.1349C1179.32 102.995 1180.46 140.213 1177.57 143.516L1175.32 143.678C1171.65 141.653 1172.42 120.852 1159.96 110.727C1147.34 95.4759 1103.49 98.0527 1089.72 110.886C1065.83 133.14 1067.37 208.603 1089.98 231.932C1099.41 241.658 1131.85 244.28 1142.85 238.781C1147.39 236.51 1145.77 198.753 1145.4 192.872C1139.77 170.852 1117.29 183.514 1112.94 175.148C1113.52 173.308 1115.11 171.294 1117.55 171.296C1124.29 171.3 1131.05 171.37 1137.8 171.375L1183.97 171.405L1184 246.844L1121.4 246.885C1107.25 246.887 1093.3 247.569 1079.29 245.589C1033.04 238.943 1024.39 195.628 1026.96 160.851C1029.51 126.303 1040.63 101.335 1082.66 96.5789Z" fill="white"/>
<g clip-path="url(#clip0_982_3)">
<rect x="64" y="279" width="1200" height="214" rx="10" fill="url(#paint0_linear_982_3)"/>
<path d="M212.264 328.256H238.954V427.196H298.114V449.636H212.264V328.256ZM360.636 402.716H392.086L376.786 358.176H376.446L360.636 402.716ZM363.186 328.256H390.556L435.946 449.636H408.236L399.056 422.606H353.666L344.146 449.636H317.286L363.186 328.256ZM566.433 403.736C566.433 420.17 561.843 432.41 552.663 440.456C543.483 448.39 530.789 452.356 514.583 452.356C498.149 452.356 485.399 448.39 476.333 440.456C467.379 432.523 462.903 420.283 462.903 403.736V328.256H489.593V403.736C489.593 407.023 489.876 410.253 490.443 413.426C491.009 416.6 492.199 419.433 494.013 421.926C495.826 424.306 498.319 426.29 501.493 427.876C504.779 429.35 509.143 430.086 514.583 430.086C524.103 430.086 530.676 427.99 534.303 423.796C537.929 419.49 539.743 412.803 539.743 403.736V328.256H566.433V403.736ZM606.418 328.256H632.938L683.598 409.686H683.938V328.256H708.928V449.636H682.238L631.748 368.376H631.408V449.636H606.418V328.256ZM776.114 427.196H799.914C803.768 427.196 807.508 426.573 811.134 425.326C814.761 424.08 817.991 422.04 820.824 419.206C823.658 416.26 825.924 412.463 827.624 407.816C829.324 403.17 830.174 397.503 830.174 390.816C830.174 384.696 829.551 379.2 828.304 374.326C827.171 369.34 825.244 365.09 822.524 361.576C819.804 358.063 816.178 355.4 811.644 353.586C807.224 351.66 801.728 350.696 795.154 350.696H776.114V427.196ZM749.424 328.256H801.784C809.604 328.256 816.858 329.503 823.544 331.996C830.344 334.49 836.181 338.23 841.054 343.216C846.041 348.203 849.894 354.436 852.614 361.916C855.448 369.396 856.864 378.18 856.864 388.266C856.864 397.106 855.731 405.266 853.464 412.746C851.198 420.226 847.741 426.686 843.094 432.126C838.561 437.566 832.838 441.873 825.924 445.046C819.124 448.106 811.078 449.636 801.784 449.636H749.424V328.256ZM919.12 383.166H948.36C954.48 383.166 959.07 381.806 962.13 379.086C965.19 376.366 966.72 371.946 966.72 365.826C966.72 359.933 965.19 355.683 962.13 353.076C959.07 350.356 954.48 348.996 948.36 348.996H919.12V383.166ZM892.43 328.256H957.88C963.32 328.256 968.194 329.163 972.5 330.976C976.92 332.676 980.66 335.056 983.72 338.116C986.894 341.176 989.274 344.746 990.86 348.826C992.56 352.793 993.41 357.1 993.41 361.746C993.41 368.886 991.88 375.063 988.82 380.276C985.874 385.49 981 389.456 974.2 392.176V392.516C977.487 393.423 980.207 394.84 982.36 396.766C984.514 398.58 986.27 400.79 987.63 403.396C988.99 405.89 989.954 408.666 990.52 411.726C991.2 414.786 991.654 417.846 991.88 420.906C991.994 422.833 992.107 425.1 992.22 427.706C992.334 430.313 992.504 432.976 992.73 435.696C993.07 438.416 993.524 441.023 994.09 443.516C994.77 445.896 995.734 447.936 996.98 449.636H970.29C968.817 445.783 967.91 441.193 967.57 435.866C967.23 430.54 966.72 425.44 966.04 420.566C965.134 414.22 963.207 409.573 960.26 406.626C957.314 403.68 952.497 402.206 945.81 402.206H919.12V449.636H892.43V328.256ZM1057.26 402.376L1012.72 328.256H1042.64L1071.03 376.196L1099.25 328.256H1129L1083.95 403.056V449.636H1057.26V402.376Z" fill="white"/>
</g>
<defs>
<linearGradient id="paint0_linear_982_3" x1="664" y1="279" x2="664" y2="540.636" gradientUnits="userSpaceOnUse">
<stop stop-color="#00BFB3"/>
<stop offset="1" stop-color="#005953"/>
</linearGradient>
<clipPath id="clip0_982_3">
<rect x="64" y="279" width="1200" height="214" rx="10" fill="white"/>
</clipPath>
</defs>
</svg>
